<?xml version="1.0" standalone="no"?>
<!DOCTYPE svg PUBLIC "-//W3C//DTD SVG 1.1//EN" "http://www.w3.org/Graphics/SVG/1.1/DTD/svg11.dtd" >
<svg xmlns="http://www.w3.org/2000/svg">
<metadata>
This is a custom SVG font generated by IcoMoon.
<iconset grid="16"></iconset>
</metadata>
<defs>
<font id="conorcc" horiz-adv-x="512" >
<font-face units-per-em="512" ascent="480" descent="-32" />
<missing-glyph horiz-adv-x="512" />
<glyph unicode="&#xe000;" d="M 256.00,336.00c-61.75,0.00-112.00-50.25-112.00-112.00c0.00-61.749, 50.25-112.00, 112.00-112.00
			s 112.00,50.251, 112.00,112.00C 368.00,285.75, 317.75,336.00, 256.00,336.00z M 256.00,368.00c 8.833,0.00, 16.00,7.146, 16.00,16.00L 272.00,416.00 c0.00,8.833-7.167,16.00-16.00,16.00
			c-8.854,0.00-16.00-7.167-16.00-16.00l0.00-32.00 C 240.00,375.146, 247.146,368.00, 256.00,368.00z M 256.00,80.00c-8.854,0.00-16.00-7.167-16.00-16.00l0.00-32.00 c0.00-8.854, 7.146-16.00, 16.00-16.00
			c 8.833,0.00, 16.00,7.146, 16.00,16.00l0.00,32.00 C 272.00,72.833, 264.833,80.00, 256.00,80.00z M 380.417,325.833l 22.625,22.625c 6.25,6.25, 6.25,16.375,0.00,22.625
			c-6.251,6.25-16.375,6.25-22.625,0.00l-22.625-22.625c-6.251-6.25-6.251-16.375,0.00-22.625
			C 364.042,319.584, 374.166,319.584, 380.417,325.833z M 131.541,122.146l-22.623-22.625c-6.252-6.25-6.252-16.376,0.00-22.625
			c 6.249-6.25, 16.373-6.25, 22.623,0.00l 22.625,22.625c 6.251,6.291, 6.251,16.375,0.00,22.625
			C 147.917,128.396, 137.792,128.438, 131.541,122.146z M 112.00,224.00c0.00,8.833-7.167,16.00-16.00,16.00L 64.00,240.00 c-8.854,0.00-16.00-7.167-16.00-16.00
			c0.00-8.854, 7.146-16.00, 16.00-16.00l 32.00,0.00 C 104.833,208.00, 112.00,215.146, 112.00,224.00z M 448.00,240.00l-32.00,0.00 c-8.854,0.00-16.00-7.167-16.00-16.00c0.00-8.854, 7.146-16.00, 16.00-16.00l 32.00,0.00 
			c 8.833,0.00, 16.00,7.146, 16.00,16.00C 464.00,232.833, 456.833,240.00, 448.00,240.00z M 131.521,325.833c 6.249-6.25, 16.375-6.25, 22.625,0.00
			c 6.249,6.25, 6.249,16.375,0.00,22.625l-22.625,22.625c-6.25,6.25-16.376,6.25-22.625,0.00c-6.25-6.25-6.25-16.375,0.00-22.625
			L 131.521,325.833z M 380.459,122.188c-6.293,6.25-16.376,6.25-22.625,0.00c-6.25-6.249-6.293-16.375,0.00-22.625l 22.625-22.625
			c 6.249-6.249, 16.374-6.249, 22.625,0.00c 6.249,6.25, 6.249,16.376,0.00,22.625L 380.459,122.188z" />
<glyph unicode="&#xe001;" d="M 248.082,216.068c-31.52,31.542-39.979,77.105-26.02,116.542
	c-15.25-5.395-29.668-13.833-41.854-26.02c-43.751-43.75-43.751-114.667,0.00-158.395c 43.729-43.73, 114.625-43.752, 158.374,0.00
	c 12.229,12.186, 20.646,26.604, 26.021,41.854C 325.188,176.09, 279.604,184.549, 248.082,216.068z" />
<glyph unicode="&#xe002;" d="M 25.50,416.00l 0.50-8.50l 13.50-11.25l 6.00-13.50l-2.00-14.25l 3.50-12.25l0.00-7.75 l 21.00-22.00l 9.75-15.75l-5.00,4.50l-1.00-10.75l 2.50,4.00l 14.75-11.25l 2.75,2.75l-2.75,11.25l 4.75,0.50l 8.25-5.25l 5.00,4.75l 4.00-4.75l 8.25,4.75l-2.50-4.75l 5.50,4.25l 6.25-4.75l-7.75,4.75l-1.50-4.75l-16.75,0.00 l-2.75,0.50l-5.00-0.50l-1.00-2.00l 3.00-7.75l 4.75-3.50l 5.50-12.25l-3.50,0.00 l-9.25,6.50l-0.50,9.25l-4.75-1.50l0.00-11.75 l 7.75-18.00 l 6.75-7.50l 8.00,0.00 l 5.25-5.75l-2.50-9.25l-4.25-1.00l 3.25-14.25l 13.25-13.50l 8.75-14.75l 14.25-10.75l0.00-9.25 l 9.75-2.50l0.00-27.75 l 5.00-3.00l 33.50-2.00l 12.25-6.25l 6.50-7.50l 12.25-4.25l 11.50,1.00l 4.50-12.25l 9.75,0.50l 24.00-16.25l 9.25-12.50l 3.00-18.25l 4.75,2.00l 1.00-3.00l-4.25,1.00l 4.25-6.25l 99.25,17.50l 0.50,10.75l-7.75,3.50l-4.50,15.50l 7.75,6.00l-1.00,19.00l 14.25,17.50l-9.75,6.00l-12.75,22.50l-204.25,171.00l-1.50,86.50l-0.50,49.25 l-143.50,0.00 l-0.50-9.25l 2.50-4.50l 3.75-11.25l-6.25-30.75l 3.00,3.50l-6.00-6.00zM 167.00,125.75l 5.00-1.00l0.00,1.00 l-3.00,1.50zM 174.50,124.75l 3.75-6.00l 5.00,3.00l-1.00,3.00l-7.75,0.00 zM 185.75,127.25l 5.75-4.50l 9.75,3.00l-1.00,1.50l-9.75-0.50zM 200.75,92.00l 5.00-2.00l0.00,1.50 l-3.00,0.50l-2.00,0.00 zM 238.00,100.75l 6.75-6.25l 4.00,0.00 l-1.00,4.25zM 238.50,83.25l 5.25-10.75l 4.00-0.50l-7.50,11.25l-1.75,0.00 z" horiz-adv-x="430" />
<glyph unicode="&#xe003;" d="M 356.082,300.068c-31.52,31.542-39.979,77.104-26.02,116.542c-15.25-5.395-29.668-13.833-41.854-26.02
	c-43.751-43.75-43.751-114.667,0.00-158.395c 43.729-43.73, 114.625-43.752, 158.374,0.00c 12.229,12.186, 20.646,26.604, 26.021,41.854
	C 433.188,260.09, 387.604,268.549, 356.082,300.068z" />
<glyph unicode="&#xe004;" d="M 326.042,36.312l-18.00,10.376c 0.542,3.124, 0.958,6.311, 0.958,9.624c0.00,3.312-0.416,6.50-1.00,9.625l 18.042,10.396
	c 8.417,4.917, 11.291,15.729, 6.458,24.104c-4.876,8.479-15.667,11.375-24.125,6.50l-18.188-10.50c-4.877,4.146-10.375,7.396-16.50,9.604
	l0.00,20.896 c0.00,9.771-7.938,17.688-17.688,17.688s-17.666-7.917-17.666-17.688l0.00-20.875 c-6.126-2.188-11.646-5.479-16.521-9.625
	l-18.146,10.50c-8.479,4.875-19.292,2.00-24.167-6.479c-4.875-8.417-1.938-19.25, 6.50-24.126l 17.959-10.375
	c-0.584-3.146-0.959-6.334-0.959-9.646s 0.375-6.50, 0.959-9.623L 186.00,36.312c-8.459-4.875-11.375-15.75-6.50-24.188
	s 15.688-11.312, 24.125-6.438l 18.167,10.438c 4.874-4.125, 10.396-7.375, 16.542-9.562l0.00-20.938 c0.00-9.749, 7.916-17.624, 17.666-17.624
	s 17.688,7.875, 17.688,17.624l0.00,20.938 c 6.125,2.188, 11.688,5.438, 16.521,9.625l 18.167-10.50c 8.458-4.875, 19.249-2.00, 24.125,6.438
	C 337.375,20.562, 334.50,31.375, 326.042,36.312z M 256.00,38.625c-9.75,0.00-17.688,7.938-17.688,17.688s 7.938,17.646, 17.688,17.646
	s 17.667-7.896, 17.667-17.646S 265.75,38.625, 256.00,38.625z M 474.166,83.75l-12.083,3.208c-0.291,3.833-1.208,7.479-2.896,10.979
	l 8.771,8.771c 4.125,4.125, 4.104,10.792,0.00,14.854c-4.083,4.104-10.708,4.125-14.833,0.00l-8.791-8.75
	c-3.459,1.625-7.146,2.562-10.959,2.875l-3.209,12.062c-1.499,5.583-7.25,8.938-12.874,7.438c-5.604-1.521-8.875-7.271-7.417-12.875
	l 3.209-11.896c-1.584-1.084-3.084-2.292-4.50-3.667c-1.375-1.417-2.542-2.916-3.626-4.459l-11.896,3.209
	c-5.604,1.499-11.396-1.876-12.896-7.438c-1.499-5.625, 1.876-11.354, 7.417-12.875l 12.00-3.229c 0.334-3.771, 1.292-7.458, 2.979-10.959
	l-8.812-8.812c-4.083-4.104-4.062-10.729, 0.042-14.812c 4.083-4.083, 10.708-4.125, 14.792-0.042l 8.832,8.833
	c 3.459-1.707, 7.168-2.666, 11.001-2.957l 3.166-12.021c 1.542-5.604, 7.25-8.938, 12.876-7.438c 5.583,1.50, 8.957,7.249, 7.458,12.917
	l-3.209,11.896c 1.50,1.062, 3.042,2.25, 4.459,3.625c 1.375,1.396, 2.542,2.938, 3.624,4.479l 11.917-3.209
	c 5.604-1.50, 11.375,1.854, 12.854,7.417C 483.062,76.459, 479.75,82.208, 474.166,83.75z M 438.312,77.062
	c-4.125-4.125-10.771-4.104-14.875,0.00c-4.062,4.062-4.104,10.729,0.00,14.854c 4.104,4.083, 10.771,4.083, 14.875,0.00
	C 442.375,87.812, 442.375,81.125, 438.312,77.062z M 118.938,137.50l-11.875-3.188c-1.104,1.50-2.25,3.021-3.646,4.438
	c-1.416,1.375-2.916,2.562-4.479,3.625l 3.188,11.938c 1.50,5.604-1.834,11.375-7.375,12.854c-5.625,1.50-11.375-1.834-12.875-7.417
	l-3.25-12.062c-3.812-0.312-7.458-1.25-10.938-2.896l-8.812,8.771c-4.125,4.125-10.75,4.104-14.834,0.00
	c-4.104-4.104-4.104-10.75,0.00-14.854l 8.771-8.771c-1.646-3.50-2.604-7.188-2.896-10.979l-12.042-3.208
	c-5.625-1.542-8.959-7.25-7.458-12.875c 1.521-5.583, 7.271-8.875, 12.896-7.417l 11.875,3.23c 1.062-1.604, 2.25-3.105, 3.688-4.502
	c 1.375-1.375, 2.875-2.604, 4.438-3.625l-3.188-11.896c-1.50-5.625, 1.834-11.417, 7.416-12.917c 5.626-1.50, 11.334,1.833, 12.834,7.438
	l 3.25,12.00c 3.812,0.312, 7.50,1.271, 11.00,2.938l 8.791-8.792c 4.084-4.124, 10.709-4.041, 14.834,0.042c 4.062,4.062, 4.125,10.708,0.00,14.812
	L 109.439,103.00c 1.688,3.46, 2.688,7.188, 2.938,11.001l 12.062,3.188c 5.562,1.521, 8.896,7.25, 7.396,12.875
	C 130.334,135.624, 124.584,138.958, 118.938,137.50z M 88.562,109.042c-4.104-4.104-10.75-4.104-14.875,0.00
	c-4.062,4.083-4.062,10.771,0.00,14.833c 4.125,4.083, 10.771,4.083, 14.875,0.00S 92.625,113.125, 88.562,109.042z" />
<glyph unicode="&#xe005;" d="M 225.00,0.00c0.00-17.688, 14.312-32.00, 32.00-32.00c 17.688,0.00, 32.00,14.312, 32.00,32.00s-32.00,64.00-32.00,64.00S 225.00,17.688, 225.00,0.00z M 352.00,32.00
	c0.00-17.688, 14.312-32.00, 32.00-32.00s 32.00,14.312, 32.00,32.00s-32.00,64.00-32.00,64.00S 352.00,49.688, 352.00,32.00z M 96.00,96.00c0.00-17.688, 14.312-32.00, 32.00-32.00s 32.00,14.312, 32.00,32.00
	s-32.00,64.00-32.00,64.00S 96.00,113.688, 96.00,96.00z" />
<glyph unicode="&#xe006;" d="M 192.00,129.00l 32.00-32.00l-32.00-96.00l 96.00,96.00l-32.00,32.00l 32.00,64.00L 192.00,129.00z" />
<glyph unicode="&#xe007;" d="M 400.00,257.00c-5.312,0.00-10.562-0.375-15.792-1.125C 354.334,296.583, 307.188,321.00, 256.00,321.00c-51.188,0.00-98.312-24.417-128.208-65.125
	c-5.23,0.75-10.48,1.125-15.792,1.125C 50.25,257.00,0.00,206.75,0.00,145.00s 50.25-112.00, 112.00-112.00c 13.688,0.00, 27.084,2.50, 39.709,7.333
	C 180.666,15.083, 217.50,1.00, 256.00,1.00c 38.542,0.00, 75.333,14.083, 104.291,39.333C 372.916,35.50, 386.312,33.00, 400.00,33.00
	c 61.75,0.00, 112.00,50.25, 112.00,112.00S 461.75,257.00, 400.00,257.00z" />
<glyph unicode="&#xe008;" d="M 400.00,385.00c-5.312,0.00-10.562-0.375-15.792-1.125C 354.334,424.583, 307.188,449.00, 256.00,449.00c-51.188,0.00-98.312-24.417-128.208-65.125
	C 122.562,384.625, 117.312,385.00, 112.00,385.00C 50.25,385.00,0.00,334.75,0.00,273.00s 50.25-112.00, 112.00-112.00c 13.688,0.00, 27.084,2.50, 39.709,7.333
	C 180.666,143.083, 217.50,129.00, 256.00,129.00c 38.542,0.00, 75.333,14.083, 104.291,39.333C 372.916,163.50, 386.312,161.00, 400.00,161.00
	c 61.75,0.00, 112.00,50.25, 112.00,112.00S 461.75,385.00, 400.00,385.00z" />
<glyph unicode="&#xe011;" d="M 208.00,384.00c-61.75,0.00-112.00-50.25-112.00-112.00c0.00-61.749, 50.25-112.00, 112.00-112.00s 112.00,50.251, 112.00,112.00C 320.00,333.75, 269.75,384.00, 208.00,384.00z M 208.00,416.00
	c 8.833,0.00, 16.00,7.146, 16.00,16.00L 224.00,464.00 c0.00,8.833-7.167,16.00-16.00,16.00c-8.854,0.00-16.00-7.167-16.00-16.00l0.00-32.00 C 192.00,423.146, 199.146,416.00, 208.00,416.00z M 208.00,128.00
	c-8.854,0.00-16.00-7.167-16.00-16.00l0.00-32.00 c0.00-8.854, 7.146-16.00, 16.00-16.00c 8.833,0.00, 16.00,7.146, 16.00,16.00l0.00,32.00 C 224.00,120.833, 216.833,128.00, 208.00,128.00z M 332.417,373.833
	l 22.625,22.625c 6.25,6.25, 6.25,16.375,0.00,22.625c-6.251,6.25-16.375,6.25-22.625,0.00l-22.625-22.625c-6.251-6.25-6.251-16.375,0.00-22.625
	C 316.042,367.584, 326.166,367.584, 332.417,373.833z M 83.541,170.146l-22.623-22.625c-6.252-6.25-6.252-16.377,0.00-22.625
	c 6.249-6.25, 16.373-6.25, 22.623,0.00l 22.625,22.625c 6.251,6.291, 6.251,16.375,0.00,22.625C 99.917,176.396, 89.792,176.438, 83.541,170.146z
	 M 64.00,272.00c0.00,8.833-7.167,16.00-16.00,16.00L 16.00,288.00 c-8.854,0.00-16.00-7.167-16.00-16.00c0.00-8.854, 7.146-16.00, 16.00-16.00l 32.00,0.00 C 56.833,256.00, 64.00,263.146, 64.00,272.00z M 400.00,288.00l-32.00,0.00 
	c-8.854,0.00-16.00-7.167-16.00-16.00c0.00-8.854, 7.146-16.00, 16.00-16.00l 32.00,0.00 c 8.833,0.00, 16.00,7.146, 16.00,16.00C 416.00,280.833, 408.833,288.00, 400.00,288.00z M 83.521,373.833
	c 6.249-6.25, 16.375-6.25, 22.625,0.00c 6.249,6.25, 6.249,16.375,0.00,22.625L 83.521,419.083c-6.25,6.25-16.376,6.25-22.625,0.00
	c-6.25-6.25-6.25-16.375,0.00-22.625L 83.521,373.833z M 332.459,170.188c-6.293,6.25-16.376,6.25-22.625,0.00
	c-6.25-6.248-6.293-16.375,0.00-22.625l 22.625-22.625c 6.249-6.248, 16.374-6.248, 22.625,0.00c 6.249,6.25, 6.249,16.377,0.00,22.625
	L 332.459,170.188z" />
<glyph unicode="&#xe014;" d="M 208.00,416.00c 8.833,0.00, 16.00,7.167, 16.00,16.00L 224.00,464.00 c0.00,8.833-7.167,16.00-16.00,16.00s-16.00-7.167-16.00-16.00l0.00-32.00 
			C 192.00,423.167, 199.167,416.00, 208.00,416.00z M 332.438,373.833l 22.625,22.625c 6.249,6.25, 6.249,16.375,0.00,22.625
			c-6.25,6.25-16.375,6.25-22.625,0.00l-22.625-22.625c-6.25-6.25-6.25-16.375,0.00-22.625
			C 316.062,367.583, 326.188,367.583, 332.438,373.833z M 16.00,256.00l 32.00,0.00 c 8.833,0.00, 16.00,7.167, 16.00,16.00s-7.167,16.00-16.00,16.00L 16.00,288.00 
			c-8.833,0.00-16.00-7.167-16.00-16.00S 7.167,256.00, 16.00,256.00z M 352.00,272.00c0.00-8.833, 7.167-16.00, 16.00-16.00l 32.00,0.00 c 8.833,0.00, 16.00,7.167, 16.00,16.00s-7.167,16.00-16.00,16.00l-32.00,0.00 
			C 359.167,288.00, 352.00,280.833, 352.00,272.00z M 83.541,373.833c 6.251-6.25, 16.376-6.25, 22.625,0.00c 6.251,6.25, 6.251,16.375,0.00,22.625
			L 83.541,419.083c-6.25,6.25-16.374,6.25-22.625,0.00c-6.25-6.25-6.25-16.375,0.00-22.625L 83.541,373.833z M 400.00,224.00
			c-5.312,0.00-10.562-0.375-15.792-1.125c-16.771,22.875-39.124,40.333-64.458,51.50C 318.459,335.00, 268.938,384.00, 208.00,384.00
			c-61.75,0.00-112.00-50.25-112.00-112.00c0.00-17.438, 4.334-33.75, 11.50-48.438C 47.875,221.125,0.00,172.188,0.00,112.00c0.00-61.75, 50.25-112.00, 112.00-112.00
			c 13.688,0.00, 27.084,2.50, 39.709,7.333C 180.666-17.917, 217.50-32.00, 256.00-32.00c 38.542,0.00, 75.333,14.083, 104.291,39.333
			C 372.916,2.50, 386.312,0.00, 400.00,0.00c 61.75,0.00, 112.00,50.25, 112.00,112.00S 461.75,224.00, 400.00,224.00z M 256.00,288.00c-45.938,0.00-88.50-19.812-118.375-53.25
			C 131.688,245.917, 128.00,258.458, 128.00,272.00c0.00,44.188, 35.812,80.00, 80.00,80.00c 39.812,0.00, 72.562-29.167, 78.708-67.25
			C 276.688,286.75, 266.459,288.00, 256.00,288.00z" />
<glyph unicode="&#xe015;" d="M 496.00,288.00L 320.00,288.00 L 320.00,464.00 c0.00,8.836-7.164,16.00-16.00,16.00l-96.00,0.00 c-8.836,0.00-16.00-7.164-16.00-16.00l0.00-176.00 L 16.00,288.00 c-8.836,0.00-16.00-7.164-16.00-16.00l0.00-96.00 
	c0.00-8.836, 7.164-16.00, 16.00-16.00l 176.00,0.00 l0.00-176.00 c0.00-8.836, 7.164-16.00, 16.00-16.00l 96.00,0.00 c 8.836,0.00, 16.00,7.164, 16.00,16.00L 320.00,160.00 l 176.00,0.00 c 8.836,0.00, 16.00,7.164, 16.00,16.00l0.00,96.00 
	C 512.00,280.836, 504.836,288.00, 496.00,288.00z" />
<glyph unicode="&#xe016;" d="M 192.00,480.00L 512.00,160.00l -192.00-192.00l -320.00,320.00L 0.00,480.00 L 192.00,480.00 z M 112.00,320.00c 26.51,0.00 48.00,21.49 48.00,48.00s -21.49,48.00, -48.00,48.00s -48.00-21.49, -48.00-48.00S 85.49,320.00, 112.00,320.00z" />
<glyph unicode="&#xe017;" d="M 323.742,143.593c-10.754-30.811-33.827,8.466-14.34,21.153c 37.134,15.415, 72.836,29.819, 124.021,38.565
	c-123.984,17.299-273.823,4.714-404.185-15.877c-10.026,5.548-12.01,20.752-4.582,28.86c 27.615,7.458, 63.474,2.314, 79.505,13.691
	c 25.279-3.503, 69.442,5.737, 98.607,10.557c 2.366,0.91, 3.05-0.724, 1.643-1.078c 0.451-5.82, 5.036,7.676, 10.89,2.264
	c-0.06-4.274-3.16,0.706-5.443-1.131c 3.558-6.595, 9.527,1.153, 8.407,1.687c 2.068,0.312, 4.555-1.715, 11.496-1.811
	c 3.765,1.497-2.631,1.525-3.294,2.16c 19.213,6.655, 36.452,1.956, 59.374,8.087c 3.017-4.284, 6.099,0.851, 7.947-4.025
	c 28.918,7.661, 51.019,2.144, 93.718,6.703c-39.291,35.665-94.435,62.713-134.90,102.575c-3.583,8.72-2.507,18.882, 6.074,25.398
	c 77.69-53.003, 162.484-95.19, 227.826-167.025c 15.746-34.233-35.603-32.782-61.604-38.362
	C 387.187,167.91, 350.541,154.135, 323.742,143.593z" />
<glyph unicode="&#xe018;" d="M 19.635,189.402c 1.427-4.282, 7.798-7.193, 7.099-9.398c 116.078,22.797, 223.787,21.633, 328.108,10.773
	c-9.703-8.685-17.535-8.614-24.534-18.242c-2.003-2.726, 2.852-6.472, 4.01-8.318c-11.279-7.419-23.729-8.404-28.662-17.669
	c 0.766-7.003, 5.479-12.797, 10.646-14.094c 56.05,32.204, 104.693,50.955, 164.773,73.029c 5.05,9.012, 6.257,16.16, 8.041,20.547
	c-49.378,20.097-93.798,43.768-138.488,66.548c-7.57-4.023-10.339-8.03-13.597-11.681c-0.447-11.379, 9.778-12.647, 17.811-18.336
	c-3.339-3.48-16.276-6.349-11.087-16.883c-85.668,1.323-171.546,0.511-258.367-9.191c-11.156,3.968-33.446-3.524-47.511,0.164
	c-15.492-7.308-15.887-19.891-1.915-25.276c 27.516,8.405, 55.901-0.826, 82.768,9.139c 93.207,5.196, 181.757,9.111, 271.16,1.262
	c 9.341,10.54, 20.497,0.693, 31.986-2.531c-15.359-8.363-28.603-9.248-40.846-3.029c-2.259-1.513-3.104-3.524-6.776-4.548
	c-18.878,1.477-38.412,1.455-57.803,2.905c-19.286,1.432-38.871,3.96-57.265,4.435c-3.141,0.089-7.343-0.387-10.365-2.435
	c-1.595,0.197-3.178,0.394-4.75,0.544c-0.107-0.106-0.242-0.281-0.414-0.467c-1.193-0.735-2.326-1.497-1.076-3.084
	c 1.687,0.707, 3.529,1.863, 4.121-0.575c-2.82-1.469-2.92,0.728-4.159-2.006c-0.668,1.385-1.336,2.771-2.006,4.162
	c-0.209,0.646, 0.901,1.555, 1.943,2.164c-34.445,3.421-72.393-1.736-107.834-3.226c-14.082-0.593-34.123-2.56-52.754-4.919
	C 56.133,205.878, 30.405,213.719, 19.635,189.402z" />
<glyph unicode="&#xe019;" d="M 487.261,248.267c 1.497-6.472, 1.311-12.745-1.123-17.986c-23.794-14.427-38.835-37.615-60.701-53.963
	c-0.14-2.861-0.661-5.337-2.248-6.75c-12.366-8.471-22.297-18.261-28.108-39.339c-7.585-4.542-15.641,0.846-19.109,6.748
	c-14.422-8.857-41.219-47.261-53.959-16.867c 28.621,38.036, 71.992,78.41, 109.042,104.547c 6.231-0.937, 7.589,0.144, 12.366-2.248
	c 6.277,3.84, 9.649,10.588, 14.612,15.738c-8.761,4.447-23.182,2.855-30.351,0.00c-20.982,9.65-46.652,6.14-74.197,8.99
	c-71.29,7.45-136.346,16.68-211.336,21.361c-20.514,1.267-40.467-0.936-61.825,1.123c-18.879,1.827-71.713,5.107-52.838,26.986
	c 10.071,0.372, 18.083-5.156, 29.229-6.748c 4.402,0.841, 4.497,5.997, 8.993,6.748c 19.907-4.41, 44.497-0.24, 68.572-5.63
	c 61.311,1.219, 111.90-2.945, 170.868-5.618c 25.202-1.123, 53.774-0.98, 73.068-3.377c-3.372,5.437-6.742,2.582-13.49,5.629
	c-10.959,20.37, 12.979,20.84, 21.361,13.485c-10.449,17.19-26.182,30.164-40.477,40.469c 0.47,4.404, 1.081,9.506, 4.501,13.49
	c 16.813-2.573, 30.542-15.317, 44.965-25.856c 28.108-20.563, 59.535-45.103, 79.815-73.067
	C 480.748,255.244, 482.39,250.142, 487.261,248.267z M 405.199,299.974c 1.502-4.915, 8.058-10.63, 12.366-8.995
	C 412.927,293.418, 409.928,297.582, 405.199,299.974z M 414.195,258.385c0.00,1.123,0.00,2.242,0.00,3.371
	c-25.058,5.288-61.362,7.30-98.925,5.618C 347.869,263.77, 378.592,259.93, 414.195,258.385z" />
<glyph unicode="&#xe009;" d="M 240.00,448.00C 107.452,448.00,0.00,340.548,0.00,208.00c0.00-132.549, 107.452-240.00, 240.00-240.00c 132.549,0.00, 240.00,107.451, 240.00,240.00
	C 480.00,340.548, 372.549,448.00, 240.00,448.00z M 375.795,128.00c 4.29,20.227, 6.998,41.696, 7.879,64.00l 63.723,0.00 c-1.668-22.098-6.812-43.557-15.34-64.00
	L 375.795,128.00 z M 104.205,288.00c-4.29-20.227-6.998-41.696-7.879-64.00L 32.604,224.00 c 1.668,22.097, 6.811,43.557, 15.339,64.00L 104.205,288.00 z M 343.018,288.00
	c 4.807-20.481, 7.699-41.927, 8.64-64.00L 256.00,224.00 l0.00,64.00 L 343.018,288.00 z M 256.00,320.00L 256.00,413.669 c 7.295-2.123, 14.522-5.685, 21.614-10.685
	c 13.291-9.37, 26.006-23.804, 36.77-41.743c 7.441-12.401, 13.876-26.208, 19.248-41.242L 256.00,319.999 z M 165.616,361.242
	c 10.764,17.939, 23.478,32.374, 36.77,41.743c 7.091,5.00, 14.319,8.562, 21.614,10.685L 224.00,320.00 l-77.632,0.00 
	C 151.741,335.033, 158.176,348.84, 165.616,361.242z M 224.00,288.00l0.00-64.00 l-95.657,0.00 c 0.94,22.073, 3.833,43.519, 8.639,64.00L 224.00,288.00 z M 47.944,128.00
	c-8.528,20.443-13.671,41.902-15.339,64.00l 63.722,0.00 c 0.881-22.304, 3.589-43.773, 7.879-64.00L 47.944,128.00 z M 128.343,192.00L 224.00,192.00 l0.00-64.00 l-87.018,0.00 
	C 132.176,148.48, 129.283,169.927, 128.343,192.00z M 224.00,96.00l0.00-93.67 c-7.294,2.123-14.522,5.686-21.614,10.685
	c-13.292,9.37-26.007,23.805-36.77,41.743c-7.441,12.402-13.875,26.209-19.249,41.242L 224.00,96.00 z M 314.384,54.758
	c-10.764-17.938-23.479-32.373-36.77-41.743c-7.092-4.999-14.319-8.562-21.614-10.685L 256.00,96.00 l 77.633,0.00 
	C 328.26,80.967, 321.825,67.16, 314.384,54.758z M 256.00,128.00l0.00,64.00 l 95.657,0.00 c-0.94-22.073-3.833-43.52-8.64-64.00L 256.00,128.00 z M 383.674,224.00
	c-0.881,22.304-3.589,43.773-7.879,64.00l 56.262,0.00 c 8.528-20.443, 13.672-41.903, 15.34-64.00L 383.674,224.00 z M 415.329,320.00l-47.95,0.00 
	c-9.319,29.381-22.188,55.147-37.658,75.714c 21.268-10.17, 40.529-23.808, 57.357-40.636C 397.818,344.339, 407.259,332.609, 415.329,320.00
	z M 92.922,355.078c 16.829,16.829, 36.09,30.466, 57.357,40.636c-15.471-20.567-28.338-46.333-37.658-75.714L 64.672,320.00 
	C 72.741,332.609, 82.183,344.339, 92.922,355.078z M 64.672,96.00l 47.949,0.00 c 9.32-29.381, 22.188-55.147, 37.659-75.715
	c-21.268,10.17-40.529,23.808-57.357,40.637C 82.183,71.661, 72.741,83.391, 64.672,96.00z M 387.078,60.922
	c-16.828-16.829-36.09-30.467-57.357-40.637c 15.471,20.567, 28.339,46.334, 37.658,75.715l 47.95,0.00 
	C 407.259,83.391, 397.818,71.661, 387.078,60.922z"  />
<glyph unicode="&#xe00a;" d="M 256.00,480.00C 114.615,480.00,0.00,365.385,0.00,224.00s 114.615-256.00, 256.00-256.00s 256.00,114.615, 256.00,256.00S 397.385,480.00, 256.00,480.00z M 352.00,352.00
		c 17.674,0.00, 32.00-21.49, 32.00-48.00s-14.326-48.00-32.00-48.00s-32.00,21.49-32.00,48.00S 334.326,352.00, 352.00,352.00z M 160.00,352.00c 17.673,0.00, 32.00-21.49, 32.00-48.00
		s-14.327-48.00-32.00-48.00s-32.00,21.49-32.00,48.00S 142.327,352.00, 160.00,352.00z M 256.00,32.00c-83.434,0.00-152.711,69.936-160.00,159.152
		c 46.885-27.057, 102.025-42.532, 160.00-42.532c 57.975,0.00, 113.115,15.403, 160.00,42.46C 408.713,101.861, 339.436,32.00, 256.00,32.00z"  />
<glyph unicode="&#xe00b;" d="M 256.00,386.496C 230.192,422.752, 189.936,448.00, 142.192,448.00C 63.744,448.00,0.00,384.128,0.00,305.744l0.00-11.744 L 256.128,0.00L 512.00,294.00l0.00,11.744 
				C 512.00,384.128, 448.256,448.00, 369.808,448.00C 322.064,448.00, 281.808,422.752, 256.00,386.496z"  />
<glyph unicode="&#xe00c;" d="M 256.00,480.00C 114.615,480.00,0.00,365.385,0.00,224.00s 114.615-256.00, 256.00-256.00s 256.00,114.615, 256.00,256.00S 397.385,480.00, 256.00,480.00z M 160.00,224.00
	c0.00,53.02, 42.98,96.00, 96.00,96.00s 96.00-42.98, 96.00-96.00s-42.98-96.00-96.00-96.00S 160.00,170.98, 160.00,224.00z M 462.99,138.262L 462.99,138.262l-88.71,36.745
	C 380.539,190.099, 384.00,206.645, 384.00,224.00s-3.461,33.901-9.72,48.993l 61.063,25.293l 27.647,11.452C 473.944,283.327, 480.00,254.373, 480.00,224.00
	C 480.00,193.627, 473.943,164.673, 462.99,138.262L 462.99,138.262z M 341.739,430.99L 341.739,430.99L 341.739,430.99l-36.745-88.71
	C 289.902,348.539, 273.356,352.00, 256.00,352.00s-33.901-3.461-48.993-9.72l-17.23,41.599l-19.515,47.112C 196.673,441.943, 225.628,448.00, 256.00,448.00
	C 286.373,448.00, 315.327,441.943, 341.739,430.99z M 49.01,309.738l 47.112-19.515l 41.599-17.23C 131.462,257.901, 128.00,241.355, 128.00,224.00
	s 3.461-33.901, 9.72-48.993l-88.71-36.745C 38.057,164.673, 32.00,193.627, 32.00,224.00C 32.00,254.373, 38.057,283.327, 49.01,309.738z
	 M 170.262,17.01l 11.452,27.647l 25.293,61.063C 222.099,99.461, 238.645,96.00, 256.00,96.00s 33.901,3.461, 48.993,9.72l 36.745-88.71l0.00,0.00l0.00,0.00
	C 315.327,6.058, 286.373,0.00, 256.00,0.00C 225.628,0.00, 196.673,6.057, 170.262,17.01z"  />
<glyph unicode="&#xe00d;" d="M 256.00,480.00C 114.615,480.00,0.00,365.385,0.00,224.00s 114.615-256.00, 256.00-256.00s 256.00,114.615, 256.00,256.00S 397.385,480.00, 256.00,480.00z M 208.00,64.00L 102.00,202.00l 47.00,49.00l 59.00-75.00
	l 185.00,151.00l 23.00-23.00L 208.00,64.00z"  />
</font>
</defs>
</svg>
